PathFileType	4	(X/Y/Z)	29_2_38_p0_0-409.trc
DataRate	CameraRate	NumFrames	NumMarkers	Units	OrigDataRate	OrigDataStartFrame	OrigNumFrames
60.0	60.0	5	27	m	60.0	256	410
Frame#	Time	RHip			RKnee			RAnkle			RBigToe			RSmallToe			RHeel			LHip			LKnee			LAnkle			LBigToe			LSmallToe			LHeel			Neck			Head			Nose			RShoulder			RElbow			RWrist			RThumb			RIndex			RPinky			LShoulder			LElbow			LWrist			LThumb			LIndex			LPinky			
		X1	Y1	Z1	X2	Y2	Z2	X3	Y3	Z3	X4	Y4	Z4	X5	Y5	Z5	X6	Y6	Z6	X7	Y7	Z7	X8	Y8	Z8	X9	Y9	Z9	X10	Y10	Z10	X11	Y11	Z11	X12	Y12	Z12	X13	Y13	Z13	X14	Y14	Z14	X15	Y15	Z15	X16	Y16	Z16	X17	Y17	Z17	X18	Y18	Z18	X19	Y19	Z19	X20	Y20	Z20	X21	Y21	Z21	X22	Y22	Z22	X23	Y23	Z23	X24	Y24	Z24	X25	Y25	Z25	X26	Y26	Z26	X27	Y27	Z27	
256	4.266666666666667	0.3419428127929467	0.6359656995468287	0.9730614693722831	0.31796686416135855	0.7205373508652535	1.3340069540296342	0.28193778654039914	0.8397946912449001	1.7451856669482422	0.28051844938026804	0.629953652236706	1.7673478732623358	0.32010834884030165	0.6624399403751803	1.7664141117510324	0.2664688913883793	0.8849447943785202	1.7955166876858977	0.14254699959524458	0.6623926003665723	0.9251980733664402	0.11976157982340109	0.6962877818359516	1.2944936544124774	0.0969717785549777	0.7833335192606634	1.7089551950579007	0.12006174849546626	0.6205091812303951	1.7512939528651679	0.06561604840846175	0.6673369003232769	1.7552342504386627	0.1100356721001988	0.82133964020013	1.75253414921875	0.2413096103919817	0.2724267828182193	0.6088704512735154	0.28651139494827177	0.01251936215328446	0.39032595334929054	0.2568134060114563	0.041746874661168096	0.524133024917947	0.3831814968285975	0.24200138113350095	0.6666907197893868	0.34697111330358765	0.40761753368407877	0.8851429265609521	0.1965380840091683	0.5268764906908291	1.0485143724085424	0.08614406880293257	0.5377336295956924	1.0898845978164193	0.09366034341033862	0.545941177083528	1.1187139780652129	0.13727007774555836	0.574968187205014	1.1421553101924844	0.1133356029364697	0.36069161842538666	0.5801787340901156	0.04651395262066903	0.564663886791852	0.6276327840321694	0.00718880762625915	0.817525767870004	0.7910745760782357	0.04239613484163768	0.8796243385514011	0.8614020213743001	0.00880737566268181	0.8570399688335086	0.8491073969852225	-0.0029283958544784015	0.8590531602438392	0.8412604471841657
257	4.283333333333333	0.34206879306087945	0.637765969059436	0.9777388521715771	0.31814839159337555	0.7195131613136987	1.3377531666242728	0.281920723615242	0.8397344982651517	1.7452107463964355	0.27578251780116547	0.6269470659651042	1.766044463675525	0.31422329446975567	0.6607073277009504	1.7701287667020866	0.26560657092758205	0.881878454173986	1.789763027041596	0.1425676560920427	0.6621608437569523	0.9252814671852566	0.11981796849287285	0.6962170434595425	1.2943190472310784	0.09699457197863638	0.7832411009684964	1.7089765936608947	0.1200081922095308	0.6207570800975148	1.7511646851141327	0.06567910281850772	0.6663845115781829	1.7544692911365058	0.11005348224288002	0.8207456073874071	1.752326061680465	0.24153608790951164	0.27246889672149094	0.6088183016627357	0.28651632534630356	0.012432237868590865	0.3902712843663864	0.2567399304001461	0.04166033833938074	0.5240989692855337	0.3831371987205414	0.24198123465046528	0.6666421873215483	0.34250502108869313	0.406492230631133	0.8922098721911147	0.19612879892750074	0.5299753371386394	1.0570186164306568	0.09023420970509409	0.5439796534147016	1.100422993962314	0.09412654763913111	0.5468808810162776	1.1240625347879025	0.1466751187024121	0.5627200545122774	1.1400424270394116	0.11958987035554926	0.37464473005931626	0.5810747426637872	0.04637099999767747	0.5634144549668508	0.6225915250253204	0.00808344749384396	0.8161736555545268	0.7840140935650022	0.03081066817210974	0.8779280926048895	0.8479280568317484	0.009650507818507133	0.8549853192020893	0.8413534474196633	-0.0032719268437537553	0.8573703005534811	0.8362938179178486
258	4.3	0.3375880888853429	0.6342272968320886	0.9728386625414392	0.31901134052756497	0.7197017410271936	1.329292507415069	0.28186487691036927	0.8399866919548297	1.7452743695053181	0.2803052365109026	0.6293853756988748	1.7671152778031716	0.31865411701282553	0.6627115035449735	1.7710510545924385	0.266338771726507	0.8847543521654119	1.7949707054438657	0.14237090261687868	0.6620490598023931	0.9250664027345323	0.11846985592526146	0.6813448337316156	1.2824256476087796	0.09701205441441446	0.7831769074727263	1.7090194736870021	0.11998713588111297	0.6206609254002273	1.7511617185695936	0.065672693144821	0.666418004816761	1.7545440292882197	0.11010731195509597	0.8206642513851351	1.7523436487485677	0.24163774774278102	0.2730074364331861	0.6054559642623893	0.2866845285176583	0.01245788227334329	0.3899984021318156	0.2534179011305354	0.0413300693695033	0.5212254562685464	0.3867270534100948	0.2517951448384092	0.6637870152336975	0.3425044466460398	0.40642479321919756	0.8924762584927506	0.201067586078355	0.5164383004676132	1.0544464548961372	0.09412825601190347	0.5454347583077721	1.104518653558177	0.0989364913538615	0.5477950831225695	1.129285042404229	0.15230792851165045	0.5474819805030431	1.1368327978104154	0.1122208569252507	0.37370822145366767	0.5731060923916489	0.046090777149645275	0.5623777377162325	0.618060739132908	0.008609400735270428	0.8129493166699292	0.7723178553964963	0.03044447887917556	0.8776853243589472	0.8423394117289095	0.0024289501293837737	0.8292577435753454	0.8326893001925932	-0.003300572604937266	0.8562042923549794	0.8363551726175895
259	4.316666666666666	0.3427299715981384	0.6368779316387456	0.9733279188541056	0.3201047131955382	0.7184713684009848	1.3245777445611426	0.2818784066738466	0.840146472162148	1.745358393533533	0.2771646314973521	0.6146211111864215	1.7608240225317686	0.3184706615740397	0.6620077729267083	1.7708176120675627	0.26983315684290604	0.9000422041590987	1.8005684903814487	0.14268062320619193	0.6638404960849569	0.9291736500352465	0.11985409408313678	0.6786477241216594	1.2821586923921948	0.09700422031569009	0.7830008028588962	1.708973851073722	0.11854732489717602	0.6090697419953249	1.750045747658966	0.06343956680759784	0.6505047799360961	1.7477454991356849	0.11000557418199922	0.8201402146486485	1.7521498764455672	0.24168110624996184	0.27279397152069756	0.6053013922276234	0.2894592335629632	0.02047834333822798	0.3803794145516651	0.24027203257055527	0.07063224143391125	0.5213812607533463	0.3866692224092544	0.2519850725251221	0.6636884920686232	0.3424462286464476	0.4057505048806469	0.8958490217478993	0.19954210691315874	0.5205780320151985	1.0666715210015172	0.09349513791912271	0.5434405284014882	1.1126581460221878	0.1045597748023514	0.5324126521677656	1.1315928629681935	0.15144014142136447	0.549356646320464	1.1412974810845224	0.11446196094249564	0.3882076740790322	0.5743728437720583	0.04594277314118068	0.5620218928737737	0.6131123703052961	0.008810461613994682	0.8136481302846955	0.7702181882461612	0.030013331148396594	0.877824573166436	0.8415667650940988	0.0021993880881082616	0.8293217952657094	0.8319779782605231	-0.0032298252246654555	0.8562304061910114	0.8357197655955422
260	4.333333333333333	0.3384265907756084	0.6346250153129105	0.9769105759835268	0.31981006459537753	0.7196033517425318	1.3206345907215833	0.2806246697110585	0.8417261179354963	1.7501917547974877	0.2771453478429039	0.6142260232249636	1.7606502595754272	0.323353821215575	0.6459255409671502	1.7639701391524685	0.26985705254159525	0.899990804377725	1.8005543100383876	0.1426742774036009	0.6630119959013943	0.9330560359592307	0.11866216753651249	0.6807332503324134	1.2822160335648891	0.09752955050738787	0.7858316592834051	1.7145098699699561	0.11861503710545712	0.6090636059668857	1.7500315329073444	0.0634602585549128	0.650289373458688	1.7476251608707078	0.10990936297997395	0.8196948843216689	1.7519419282604962	0.24664396837004085	0.26052586070976075	0.6013568619396416	0.2953590307304549	0.03007576003742452	0.376680646920826	0.25286718604759956	0.051730343809549474	0.5151927454882185	0.38660383397245623	0.2520109093583707	0.6636252198558621	0.3423280177176028	0.40533903703516866	0.896109082575704	0.19912347851687362	0.5226839666196509	1.0792546674167192	0.09457593371097482	0.5427026358216336	1.1255745953645888	0.10490573762875575	0.5344052685616533	1.1408989884872	0.1575241452311272	0.5519391743179967	1.157283824421746	0.11522065620196206	0.38612412908471727	0.5677734351625084	0.04603576436594291	0.5617577755341966	0.6131459235618805	0.008883549368769792	0.8135191551990817	0.7703761759766012	0.030138988908037224	0.8771885857236625	0.8413046720063622	0.0031023829694951303	0.8274997169026854	0.824454397142326	-0.0024749077931964956	0.854693653719948	0.8290982271225987
